Patient4_TMGait_0pt3_02_right_06_GRF.mot
version=1
nRows=45
nColumns=19
inDegrees=no
endheader
time	F1x	F1y	F1z	M1x	M1y	M1z	F2x	F2y	F2z	M2x	M2y	M2z	EC1x	EC1y	EC1z	EC2x	EC2y	EC2z
10.39	-20.0862	812.0152	48.8955	-314.018	-55.5255	799.5605	-1.1425	8.1172	-4.0869	3.8159	4.5655	5.2383	-0.0592	0.0182	-0.0073	-0.0462	0.0165	0.9585
10.4109	-20.0656	832.7972	48.8368	-322.1571	-54.6386	817.4549	-1.0529	6.5228	-2.9928	2.952	3.3804	4.5296	-0.0592	0.0182	-0.0073	-0.0462	0.0165	0.9585
10.4317	-19.821	853.8292	48.6862	-330.43	-53.5709	834.8289	-0.86299	4.863	-1.9596	2.1104	2.2469	3.6968	-0.0592	0.0182	-0.0073	-0.0462	0.0165	0.9585
10.4526	-19.2742	872.1482	48.4392	-337.6515	-52.3315	848.9201	-0.63381	3.3985	-1.1018	1.3979	1.2937	2.9201	-0.0592	0.0182	-0.0073	-0.0462	0.0165	0.9585
10.4734	-18.3796	884.9172	48.1306	-342.6638	-50.9556	857.1745	-0.41471	2.2478	-0.45496	0.85555	0.5684	2.2886	-0.0592	0.0182	-0.0073	-0.0462	0.0165	0.9585
10.4943	-17.1094	889.9533	47.8217	-344.5647	-49.4998	857.6898	-0.23082	1.4236	-0.0078682	0.47807	0.065119	1.8178	-0.0592	0.0182	-0.0073	-0.0462	0.0165	0.9585
10.5151	-15.4149	886.1224	47.5525	-342.8867	-47.9923	849.5326	-0.091677	0.87423	0.27264	0.23392	-0.24861	1.4774	-0.0592	0.0182	-0.0073	-0.0462	0.0165	0.9585
10.536	-13.2093	873.576	47.3004	-337.7017	-46.3866	832.9294	0.0017306	0.50759	0.42618	0.078289	-0.4162	1.2021	-0.0592	0.0182	-0.0073	-0.0462	0.0165	0.9585
10.5569	-10.4104	853.7046	46.9865	-329.5968	-44.576	809.2233	0.053605	0.21291	0.48916	-0.038527	-0.4799	0.91532	-0.0592	0.0182	-0.0073	-0.0462	0.0165	0.9585
10.5777	-6.9868	828.8156	46.5069	-319.5344	-42.4402	780.5841	0.070395	-0.12765	0.49183	-0.16653	-0.4742	0.53542	-0.0592	0.0182	-0.0073	-0.0462	0.0165	0.9585
10.5986	-2.9489	801.6977	45.7657	-308.6653	-39.8745	749.6049	0.061108	-0.62609	0.46131	-0.35168	-0.43125	-0.023513	-0.0592	0.0182	-0.0073	-0.0462	0.0165	0.9585
10.6194	1.6601	775.146	44.7113	-298.126	-36.8207	718.8758	0.035166	-1.375	0.42188	-0.63106	-0.37976	-0.84221	-0.0592	0.0182	-0.0073	-0.0462	0.0165	0.9585
10.6403	6.7585	751.5448	43.3756	-288.8621	-33.3094	690.6175	0.0028672	-2.4277	0.39568	-1.0261	-0.34422	-1.9679	-0.0592	0.0182	-0.0073	-0.0462	0.0165	0.9585
10.6611	12.2179	732.6133	41.8984	-281.5266	-29.4874	666.4629	-0.022871	-3.7751	0.40163	-1.5329	-0.34582	-3.3874	-0.0592	0.0182	-0.0073	-0.0462	0.0165	0.9585
10.682	17.8431	719.2933	40.5047	-276.4426	-25.6107	647.3657	-0.027449	-5.2993	0.45584	-2.1052	-0.40525	-4.978	-0.0592	0.0182	-0.0073	-0.0462	0.0165	0.9585
10.7029	23.3972	711.7825	39.4522	-273.6264	-21.9931	633.628	0.0063479	-6.7203	0.57264	-2.6356	-0.54294	-6.4542	-0.0592	0.0182	-0.0073	-0.0462	0.0165	0.9585
10.7237	28.6479	709.6391	38.9575	-272.8477	-18.9248	624.9753	0.10056	-7.5424	0.76118	-2.9358	-0.77311	-7.323	-0.0592	0.0182	-0.0073	-0.0462	0.0165	0.9585
10.7446	33.3953	711.8571	39.1362	-273.6743	-16.6088	620.6186	0.28274	-7.0087	1.0231	-2.7185	-1.1011	-6.8328	-0.0592	0.0182	-0.0073	-0.0462	0.0165	0.9585
10.7654	37.4769	716.9019	39.9862	-275.491	-15.1385	619.2879	0.5809	-4.075	1.3418	-1.5863	-1.5168	-3.9418	-0.0592	0.0182	-0.0073	-0.0462	0.0165	0.9585
10.7863	40.7543	722.7588	41.3954	-277.5182	-14.5059	619.2855	1.0159	2.5703	1.6714	0.95812	-1.979	2.6602	-0.0592	0.0182	-0.0073	-0.0462	0.0165	0.9585
10.8071	43.1023	727.0262	43.17	-278.8418	-14.6271	618.5826	1.5893	14.3865	1.9247	5.4665	-2.3947	14.4334	-0.0592	0.0182	-0.0073	-0.0462	0.0165	0.9585
10.828	44.4311	727.1715	45.0701	-278.5033	-15.3612	615.0397	2.2647	32.7248	1.9617	12.4468	-2.6021	32.7367	-0.0592	0.0182	-0.0073	-0.0462	0.0165	0.9585
10.8489	44.7071	720.933	46.8383	-275.6512	-16.5213	606.7481	2.9248	58.4046	1.5824	22.2037	-2.3493	58.4082	-0.0592	0.0182	-0.0073	-0.0462	0.0165	0.9585
10.8697	43.9721	706.717	48.2227	-269.6958	-17.8854	592.3613	3.1573	91.2172	0.55709	34.6485	-1.249	91.2605	-0.0592	0.0182	-0.0073	-0.0462	0.0165	0.9585
10.8906	42.3593	683.8911	48.9962	-260.4243	-19.2098	571.3271	2.1654	129.4507	-1.3255	49.118	1.1965	129.6121	-0.0592	0.0182	-0.0073	-0.0462	0.0165	0.9585
10.9114	40.0922	652.9901	48.9809	-248.082	-20.2538	544.044	-0.37016	170.1432	-4.1119	64.4742	5.128	170.4972	-0.0592	0.0182	-0.0073	-0.0462	0.0165	0.9585
10.9323	37.4903	615.7333	48.1025	-233.3711	-20.8233	511.8549	-4.0806	210.8366	-7.4656	79.7873	10.0413	211.3767	-0.0592	0.0182	-0.0073	-0.0462	0.0165	0.9585
10.9531	34.9109	574.5478	46.3992	-217.2582	-20.7955	476.6644	-8.4527	250.9749	-10.8611	94.8606	15.2024	251.6174	-0.0592	0.0182	-0.0073	-0.0462	0.0165	0.9585
10.974	32.5985	531.6722	43.9615	-200.6273	-20.1281	440.2409	-12.9864	290.7656	-13.8903	109.787	20.0151	291.3749	-0.0592	0.0182	-0.0073	-0.0462	0.0165	0.9585
10.9949	30.6162	488.5737	40.9048	-184.0532	-18.8663	403.7617	-17.1894	330.031	-16.37	124.498	24.1201	330.4191	-0.0592	0.0182	-0.0073	-0.0462	0.0165	0.9585
11.0157	28.8865	446.0051	37.3892	-167.8177	-17.144	367.8516	-20.6382	368.0132	-18.3415	138.6885	27.4107	367.9481	-0.0592	0.0182	-0.0073	-0.0462	0.0165	0.9585
11.0366	27.251	404.3396	33.6108	-152.0404	-15.1587	332.8426	-23.073	403.6652	-19.9667	151.9369	29.9613	402.8931	-0.0592	0.0182	-0.0073	-0.0462	0.0165	0.9585
11.0574	25.5416	363.8462	29.7601	-136.7917	-13.1132	298.9741	-24.4483	436.2441	-21.392	163.9438	31.9094	434.5116	-0.0592	0.0182	-0.0073	-0.0462	0.0165	0.9585
11.0783	23.634	324.7782	25.9944	-122.1324	-11.1665	266.4601	-24.8909	465.815	-22.6816	174.7271	33.3703	462.8798	-0.0592	0.0182	-0.0073	-0.0462	0.0165	0.9585
11.0991	21.4625	287.2645	22.4308	-108.0799	-9.4248	235.4008	-24.6056	493.2117	-23.8572	184.599	34.4437	488.8336	-0.0592	0.0182	-0.0073	-0.0462	0.0165	0.9585
11.12	19.0028	251.1902	19.1481	-94.5676	-7.9543	205.6853	-23.8044	519.6122	-24.9692	193.9962	35.2544	513.5293	-0.0592	0.0182	-0.0073	-0.0462	0.0165	0.9585
11.1409	16.2329	216.3212	16.1864	-81.492	-6.8004	177.1	-22.6507	546.0611	-26.125	203.2987	35.9616	537.9677	-0.0592	0.0182	-0.0073	-0.0462	0.0165	0.9585
11.1617	13.1538	182.5696	13.563	-68.8115	-5.9865	149.5428	-21.226	573.144	-27.4394	212.7077	36.6966	562.6832	-0.0592	0.0182	-0.0073	-0.0462	0.0165	0.9585
11.1826	9.8477	150.1661	11.2892	-56.6108	-5.4993	123.1561	-19.5523	600.8082	-28.9706	222.1809	37.5084	587.592	-0.0592	0.0182	-0.0073	-0.0462	0.0165	0.9585
11.2034	6.5011	119.6668	9.3624	-45.1033	-5.2732	98.3418	-17.6481	628.377	-30.712	231.4427	38.3817	612.0357	-0.0592	0.0182	-0.0073	-0.0462	0.0165	0.9585
11.2243	3.3752	91.7708	7.7442	-34.5612	-5.185	75.6206	-15.5632	654.7416	-32.6293	240.0558	39.2913	634.9809	-0.0592	0.0182	-0.0073	-0.0462	0.0165	0.9585
11.2451	0.73001	67.0933	6.3574	-25.2281	-5.0808	55.4658	-13.3945	678.6797	-34.6745	247.5469	40.2252	655.3288	-0.0592	0.0182	-0.0073	-0.0462	0.0165	0.9585
11.266	-1.2484	46.0729	5.108	-17.2789	-4.8181	38.2358	-11.2706	699.2049	-36.7911	253.5476	41.1849	672.2371	-0.0592	0.0182	-0.0073	-0.0462	0.0165	0.9585
11.2869	-2.4616	28.9672	3.9235	-10.816	-4.3038	24.1566	-9.3269	715.8065	-38.9119	257.8963	42.1757	685.3278	-0.0592	0.0182	-0.0073	-0.0462	0.0165	0.9585
11.3077	-2.914	15.8432	2.7899	-5.8655	-3.5325	13.3043	-7.6853	728.5469	-40.9416	260.6862	43.179	694.7504	-0.0592	0.0182	-0.0073	-0.0462	0.0165	0.9585
